<svg width="26" height="26" viewBox="0 0 26 26" fill="none" xmlns="http://www.w3.org/2000/svg">
<path d="M12.7285 13.7894C13.3143 13.7894 13.7892 13.3145 13.7892 12.7287C13.7892 12.1429 13.3143 11.668 12.7285 11.668C12.1427 11.668 11.6677 12.1429 11.6677 12.7287C11.6677 13.3145 12.1427 13.7894 12.7285 13.7894Z" stroke="#F5FBEE" stroke-width="2.12145" stroke-linecap="round" stroke-linejoin="round"/>
<path d="M20.1535 13.7894C20.7394 13.7894 21.2143 13.3145 21.2143 12.7287C21.2143 12.1429 20.7394 11.668 20.1535 11.668C19.5677 11.668 19.0928 12.1429 19.0928 12.7287C19.0928 13.3145 19.5677 13.7894 20.1535 13.7894Z" stroke="#F5FBEE" stroke-width="2.12145" stroke-linecap="round" stroke-linejoin="round"/>
<path d="M5.3034 13.7894C5.88922 13.7894 6.36413 13.3145 6.36413 12.7287C6.36413 12.1429 5.88922 11.668 5.3034 11.668C4.71758 11.668 4.24268 12.1429 4.24268 12.7287C4.24268 13.3145 4.71758 13.7894 5.3034 13.7894Z" stroke="#F5FBEE" stroke-width="2.12145" stroke-linecap="round" stroke-linejoin="round"/>
</svg>
