<svg width="26" height="26" viewBox="0 0 26 26" fill="none" xmlns="http://www.w3.org/2000/svg">
<path d="M20.1538 17.6842C20.1538 18.8146 20.1538 19.3799 19.9221 19.6702C19.7206 19.9226 19.415 20.0695 19.0919 20.0691C18.7205 20.0687 18.2791 19.7157 17.3964 19.0095L11.2031 14.0548C10.6369 13.6018 10.3537 13.3753 10.2512 13.1017C10.1614 12.8618 10.1614 12.5974 10.2512 12.3575C10.3537 12.0838 10.6369 11.8573 11.2031 11.4043L17.3964 6.44969C18.2791 5.74352 18.7205 5.39044 19.0919 5.39004C19.415 5.38969 19.7206 5.53656 19.9221 5.78903C20.1538 6.07932 20.1538 6.64453 20.1538 7.77494L20.1538 17.6842Z" fill="#333232"/>
<path d="M5.30366 20.1547L5.30366 5.30451M17.3964 6.44968L11.2031 11.4043C10.6369 11.8573 10.3537 12.0838 10.2512 12.3575C10.1614 12.5974 10.1614 12.8618 10.2512 13.1017C10.3537 13.3753 10.6369 13.6018 11.2031 14.0548L17.3964 19.0095C18.2791 19.7157 18.7205 20.0687 19.0919 20.0691C19.415 20.0695 19.7206 19.9226 19.9221 19.6702C20.1538 19.3799 20.1538 18.8146 20.1538 17.6842L20.1538 7.77494C20.1538 6.64453 20.1538 6.07932 19.9221 5.78903C19.7206 5.53656 19.415 5.38969 19.0919 5.39004C18.7205 5.39044 18.2791 5.74352 17.3964 6.44968Z" stroke="#333232" stroke-width="1.06072" stroke-linecap="round" stroke-linejoin="round"/>
</svg>
